<svg id="visual" viewBox="0 0 900 600" width="900" height="600" xmlns="http://www.w3.org/2000/svg" xmlns:xlink="http://www.w3.org/1999/xlink" version="1.1"><rect x="0" y="0" width="900" height="600" fill="#615BC2"></rect><defs><linearGradient id="grad1_0" x1="33.3%" y1="0%" x2="100%" y2="100%"><stop offset="20%" stop-color="#615bc2" stop-opacity="1"></stop><stop offset="80%" stop-color="#615bc2" stop-opacity="1"></stop></linearGradient></defs><defs><linearGradient id="grad2_0" x1="0%" y1="0%" x2="66.7%" y2="100%"><stop offset="20%" stop-color="#615bc2" stop-opacity="1"></stop><stop offset="80%" stop-color="#615bc2" stop-opacity="1"></stop></linearGradient></defs><g transform="translate(900, 0)"><path d="M0 405.6C-60 376.8 -120.1 348 -183.5 317.8C-246.9 287.6 -313.7 256 -351.3 202.8C-388.9 149.6 -397.2 74.8 -405.6 0L0 0Z" fill="#373E95"></path></g><g transform="translate(0, 600)"><path d="M0 -405.6C64 -383.8 128.1 -361.9 191 -330.8C253.9 -299.8 315.7 -259.5 351.3 -202.8C386.9 -146.1 396.2 -73.1 405.6 0L0 0Z" fill="#373E95"></path></g></svg>