<svg id="visual" viewBox="0 0 960 540" width="960" height="540" xmlns="http://www.w3.org/2000/svg" xmlns:xlink="http://www.w3.org/1999/xlink" version="1.1"><rect x="0" y="0" width="960" height="540" fill="#041C32"></rect><path d="M550 540L554.8 528.8C559.7 517.7 569.3 495.3 561.2 472.8C553 450.3 527 427.7 519.3 405.2C511.7 382.7 522.3 360.3 535.8 337.8C549.3 315.3 565.7 292.7 573.7 270.2C581.7 247.7 581.3 225.3 572.3 202.8C563.3 180.3 545.7 157.7 532.3 135.2C519 112.7 510 90.3 509.2 67.8C508.3 45.3 515.7 22.7 519.3 11.3L523 0L960 0L960 11.3C960 22.7 960 45.3 960 67.8C960 90.3 960 112.7 960 135.2C960 157.7 960 180.3 960 202.8C960 225.3 960 247.7 960 270.2C960 292.7 960 315.3 960 337.8C960 360.3 960 382.7 960 405.2C960 427.7 960 450.3 960 472.8C960 495.3 960 517.7 960 528.8L960 540Z" fill="#6d65e4"></path><path d="M587 540L593.8 528.8C600.7 517.7 614.3 495.3 626 472.8C637.7 450.3 647.3 427.7 645.7 405.2C644 382.7 631 360.3 617.7 337.8C604.3 315.3 590.7 292.7 592.5 270.2C594.3 247.7 611.7 225.3 620.3 202.8C629 180.3 629 157.7 622 135.2C615 112.7 601 90.3 605.5 67.8C610 45.3 633 22.7 644.5 11.3L656 0L960 0L960 11.3C960 22.7 960 45.3 960 67.8C960 90.3 960 112.7 960 135.2C960 157.7 960 180.3 960 202.8C960 225.3 960 247.7 960 270.2C960 292.7 960 315.3 960 337.8C960 360.3 960 382.7 960 405.2C960 427.7 960 450.3 960 472.8C960 495.3 960 517.7 960 528.8L960 540Z" fill="#625dd4"></path><path d="M701 540L694.8 528.8C688.7 517.7 676.3 495.3 672.3 472.8C668.3 450.3 672.7 427.7 680.2 405.2C687.7 382.7 698.3 360.3 703.2 337.8C708 315.3 707 292.7 706.7 270.2C706.3 247.7 706.7 225.3 709.2 202.8C711.7 180.3 716.3 157.7 707.2 135.2C698 112.7 675 90.3 664.8 67.8C654.7 45.3 657.3 22.7 658.7 11.3L660 0L960 0L960 11.3C960 22.7 960 45.3 960 67.8C960 90.3 960 112.7 960 135.2C960 157.7 960 180.3 960 202.8C960 225.3 960 247.7 960 270.2C960 292.7 960 315.3 960 337.8C960 360.3 960 382.7 960 405.2C960 427.7 960 450.3 960 472.8C960 495.3 960 517.7 960 528.8L960 540Z" fill="#5655c4"></path><path d="M729 540L737 528.8C745 517.7 761 495.3 766.2 472.8C771.3 450.3 765.7 427.7 764.7 405.2C763.7 382.7 767.3 360.3 763.2 337.8C759 315.3 747 292.7 741.3 270.2C735.7 247.7 736.3 225.3 738.2 202.8C740 180.3 743 157.7 744.3 135.2C745.7 112.7 745.3 90.3 749.8 67.8C754.3 45.3 763.7 22.7 768.3 11.3L773 0L960 0L960 11.3C960 22.7 960 45.3 960 67.8C960 90.3 960 112.7 960 135.2C960 157.7 960 180.3 960 202.8C960 225.3 960 247.7 960 270.2C960 292.7 960 315.3 960 337.8C960 360.3 960 382.7 960 405.2C960 427.7 960 450.3 960 472.8C960 495.3 960 517.7 960 528.8L960 540Z" fill="#4c4db4"></path><path d="M799 540L803.2 528.8C807.3 517.7 815.7 495.3 817 472.8C818.3 450.3 812.7 427.7 807.7 405.2C802.7 382.7 798.3 360.3 800.2 337.8C802 315.3 810 292.7 816.3 270.2C822.7 247.7 827.3 225.3 822 202.8C816.7 180.3 801.3 157.7 796.5 135.2C791.7 112.7 797.3 90.3 802.2 67.8C807 45.3 811 22.7 813 11.3L815 0L960 0L960 11.3C960 22.7 960 45.3 960 67.8C960 90.3 960 112.7 960 135.2C960 157.7 960 180.3 960 202.8C960 225.3 960 247.7 960 270.2C960 292.7 960 315.3 960 337.8C960 360.3 960 382.7 960 405.2C960 427.7 960 450.3 960 472.8C960 495.3 960 517.7 960 528.8L960 540Z" fill="#4146a4"></path><path d="M876 540L879.8 528.8C883.7 517.7 891.3 495.3 893.8 472.8C896.3 450.3 893.7 427.7 892 405.2C890.3 382.7 889.7 360.3 883.7 337.8C877.7 315.3 866.3 292.7 868.7 270.2C871 247.7 887 225.3 890.2 202.8C893.3 180.3 883.7 157.7 876 135.2C868.3 112.7 862.7 90.3 862.7 67.8C862.7 45.3 868.3 22.7 871.2 11.3L874 0L960 0L960 11.3C960 22.7 960 45.3 960 67.8C960 90.3 960 112.7 960 135.2C960 157.7 960 180.3 960 202.8C960 225.3 960 247.7 960 270.2C960 292.7 960 315.3 960 337.8C960 360.3 960 382.7 960 405.2C960 427.7 960 450.3 960 472.8C960 495.3 960 517.7 960 528.8L960 540Z" fill="#373e95"></path></svg>